<?xml version="1.0" encoding="UTF-8"?>
<svg version="1.1" xmlns="http://www.w3.org/2000/svg" width="512" height="512">
<path d="M0 0 C168.96 0 337.92 0 512 0 C512 168.96 512 337.92 512 512 C343.04 512 174.08 512 0 512 C0 343.04 0 174.08 0 0 Z " fill="#7C5BFF" transform="translate(0,0)"/>
<path d="M0 0 C25 0 25 0 30.3359375 4.3984375 C31.97094727 7.26196289 31.97094727 7.26196289 33.375 10.375 C33.94855225 11.42486084 34.52210449 12.47472168 35.11303711 13.55639648 C36.26976859 15.67994831 37.39015113 17.82375099 38.47119141 19.98681641 C40.59447513 24.17167232 43.06198784 28.09648454 45.5625 32.0625 C46.44502992 33.51551954 47.32520875 34.96996948 48.203125 36.42578125 C53.06579994 44.42470662 58.15035631 52.28619188 63.19287109 60.17236328 C66.17614152 64.84032303 69.15074699 69.51379129 72.125 74.1875 C72.70596436 75.10023682 73.28692871 76.01297363 73.88549805 76.95336914 C80.10185879 86.72417952 86.2815333 96.51804042 92.45898438 106.31347656 C98.28744612 115.55419528 104.13084011 124.7850656 110 134 C115.86632526 143.21048386 121.70673018 152.43699003 127.53222656 161.67333984 C129.51904088 164.82276439 131.50747044 167.97116655 133.49658203 171.11914062 C134.49598386 172.70182438 135.49436262 174.28515464 136.49169922 175.86914062 C139.01857716 179.8797431 141.56264575 183.87749024 144.140625 187.85546875 C150.03722011 196.99224472 155.3606168 206.15744393 160.02929688 215.97802734 C161.80458118 219.67594097 163.65825814 223.33486844 165.5 227 C166.17739433 228.35401112 166.85450813 229.70816265 167.53125 231.0625 C168.25828125 232.5165625 168.25828125 232.5165625 169 234 C168.69006494 230.33311187 168.37658349 226.66653494 168.0625 223 C167.97548828 221.97003906 167.88847656 220.94007813 167.79882812 219.87890625 C167.66831055 218.36103516 167.66831055 218.36103516 167.53515625 216.8125 C167.456604 215.89082031 167.37805176 214.96914063 167.29711914 214.01953125 C167.07791905 211.79186756 166.79958709 209.56983569 166.48894596 207.35307312 C165.94333186 202.99828541 165.86308569 198.71558502 165.87974548 194.33129883 C165.87846385 193.07760404 165.87846385 193.07760404 165.87715632 191.79858208 C165.87551861 189.01804283 165.88099472 186.23756487 165.88647461 183.45703125 C165.88675688 181.45587668 165.88659797 179.45472201 165.8860321 177.4535675 C165.88574567 172.03478346 165.89161753 166.61602163 165.89860606 161.19724274 C165.90486523 155.52912001 165.90544543 149.86099675 165.90663147 144.19287109 C165.90973723 133.46563612 165.91794044 122.73841136 165.92798096 112.01118088 C165.93916555 99.79599334 165.94465846 87.58080532 165.94967639 75.36561394 C165.96012367 50.24373677 165.97791037 25.12186939 166 0 C175.57 0 185.14 0 195 0 C195 92.73 195 185.46 195 281 C186.09 281 177.18 281 168 281 C160.40884286 271.38917719 160.40884286 271.38917719 158.60546875 266.83984375 C155.9995694 260.76753949 152.63367392 255.44000419 149 249.9375 C147.8124406 248.08764474 146.62752277 246.23609087 145.4453125 244.3828125 C144.5795459 243.03171387 144.5795459 243.03171387 143.69628906 241.65332031 C141.07296627 237.54994206 138.47287062 233.43202326 135.875 229.3125 C135.14083862 228.14871826 135.14083862 228.14871826 134.3918457 226.96142578 C133.41268092 225.40922983 132.43359508 223.85698409 131.45458984 222.3046875 C130.00918211 220.01454836 128.56159316 217.72580343 127.11328125 215.4375 C120.89980108 205.6173685 114.72781647 195.77200819 108.57373047 185.91455078 C103.22839607 177.35626365 97.84790557 168.82068397 92.45166016 160.29443359 C89.96526467 156.36454042 87.48287225 152.43211968 85 148.5 C84.00001836 146.91665507 83.00001838 145.33332172 82 143.75 C80 140.58333333 78 137.41666667 76 134.25 C75.5052417 133.46665283 75.0104834 132.68330566 74.50073242 131.8762207 C73.49821757 130.28886474 72.49577646 128.70146221 71.4934082 127.11401367 C68.54909449 122.45134785 65.60218401 117.79033981 62.65283203 113.13085938 C61.16244708 110.77286279 59.67689666 108.41186366 58.19140625 106.05078125 C55.95027315 102.49207821 53.68215197 98.95200507 51.40234375 95.41796875 C41.98069632 80.70966219 33.79368988 65.61281964 26 50 C26.30902202 53.85445371 26.62284242 57.70850258 26.9375 61.5625 C27.02451172 62.64853516 27.11152344 63.73457031 27.20117188 64.85351562 C27.28818359 65.91376953 27.37519531 66.97402344 27.46484375 68.06640625 C27.543396 69.03521729 27.62194824 70.00402832 27.70288086 71.00219727 C27.90706969 73.06237365 28.18055279 75.11648364 28.51105404 77.16020298 C29.03476786 81.27303942 29.13615473 85.29798351 29.12025452 89.43455505 C29.12110894 90.2572465 29.12196337 91.07993795 29.12284368 91.92755944 C29.12448389 94.66974639 29.1190011 97.41187146 29.11352539 100.15405273 C29.11324318 102.12550353 29.11340192 104.09695442 29.1139679 106.06840515 C29.11425454 111.41080469 29.10837925 116.75318173 29.10139394 122.09557605 C29.09513831 127.68229225 29.09455485 133.26900898 29.09336853 138.85572815 C29.09026174 149.43070783 29.08205712 160.00567717 29.07201904 170.5806523 C29.06083768 182.6216966 29.05534235 194.66274139 29.05032361 206.70378959 C29.03987397 231.46919899 29.02208545 256.23459848 29 281 C19.43 281 9.86 281 0 281 C0 188.27 0 95.54 0 0 Z " fill="#FCFCFF" transform="translate(260,114)"/>
<path d="M0 0 C10.23 0 20.46 0 31 0 C31.0231739 27.80799782 31.04100741 55.6159933 31.05181217 83.42399883 C31.05696291 96.33646156 31.06398231 109.24891816 31.07543945 122.16137695 C31.08542364 133.41917275 31.09186232 144.67696411 31.09408849 155.93476421 C31.09538926 161.89264367 31.0984349 167.85051046 31.10573006 173.80838585 C31.11254923 179.42335853 31.11460501 185.03831337 31.11310768 190.65328979 C31.11338137 192.70706593 31.11535134 194.76084271 31.11920547 196.81461525 C31.16922219 224.85769235 31.16922219 224.85769235 28.25 236.5 C28.0751709 237.21285156 27.9003418 237.92570313 27.72021484 238.66015625 C23.7412927 254.28240368 17.69210932 267.71608076 3.5859375 276.50390625 C-18.04229167 288.00463128 -47.7128315 286.65208488 -70.62255859 279.77050781 C-77.26019471 277.61930843 -83.75323911 275.12338044 -90 272 C-88.5102402 263.50836915 -85.31428738 255.9105161 -82 248 C-77.51039614 248.7047634 -73.4560022 250.28404811 -69.25 251.9375 C-52.94217603 258.17869772 -33.35475165 261.59859572 -16.8125 254.3125 C-8.98295274 250.06306382 -5.62088397 243.22198389 -3 235 C-0.04419204 224.34789397 -0.69173276 213.137682 -0.68115234 202.1887207 C-0.6718439 199.980226 -0.66167387 197.77173479 -0.65071106 195.56324768 C-0.62350038 189.59302248 -0.60828817 183.62282076 -0.59528303 177.65254998 C-0.57961332 171.40385269 -0.55283538 165.15520307 -0.5272522 158.90653992 C-0.48583467 148.4267218 -0.45122113 137.94689955 -0.421875 127.46704102 C-0.39164327 116.67763388 -0.35727194 105.88825289 -0.31738281 95.09887695 C-0.31492126 94.4326799 -0.31245972 93.76648285 -0.30992357 93.08009801 C-0.29754808 89.73764277 -0.28508731 86.39518787 -0.27259517 83.05273306 C-0.16937632 55.36852362 -0.08047801 27.68428408 0 0 Z " fill="#FDFDFF" transform="translate(148,114)"/>
<path d="M0 0 C0.33 0 0.66 0 1 0 C1 13.53 1 27.06 1 41 C-12.53 41 -26.06 41 -40 41 C-36.76284016 39.38142008 -33.61375469 38.05715856 -30.25 36.75 C-24.78388069 34.47853851 -20.44415797 31.88380762 -16 28 C-15.40703125 27.52304687 -14.8140625 27.04609375 -14.203125 26.5546875 C-6.56114327 19.82568589 -2.52693015 9.66396702 0 0 Z " fill="#000000" transform="translate(511,471)"/>
<path d="M0 0 C1.61857992 3.23715984 2.94284144 6.38624531 4.25 9.75 C6.52146149 15.21611931 9.11619238 19.55584203 13 24 C13.71542969 24.88945312 13.71542969 24.88945312 14.4453125 25.796875 C21.17431411 33.43885673 31.33603298 37.47306985 41 40 C41 40.33 41 40.66 41 41 C27.47 41 13.94 41 0 41 C0 27.47 0 13.94 0 0 Z " fill="#000000" transform="translate(0,471)"/>
<path d="M0 0 C13.53 0 27.06 0 41 0 C41 13.53 41 27.06 41 41 C39.38142008 37.76284016 38.05715856 34.61375469 36.75 31.25 C34.47853851 25.78388069 31.88380762 21.44415797 28 17 C27.52304687 16.40703125 27.04609375 15.8140625 26.5546875 15.203125 C19.82568589 7.56114327 9.66396702 3.52693015 0 1 C0 0.67 0 0.34 0 0 Z " fill="#000000" transform="translate(471,0)"/>
<path d="M0 0 C13.53 0 27.06 0 41 0 C37.76284016 1.61857992 34.61375469 2.94284144 31.25 4.25 C25.78388069 6.52146149 21.44415797 9.11619238 17 13 C16.40703125 13.47695312 15.8140625 13.95390625 15.203125 14.4453125 C7.56114327 21.17431411 3.52693015 31.33603298 1 41 C0.67 41 0.34 41 0 41 C0 27.47 0 13.94 0 0 Z " fill="#000000" transform="translate(0,0)"/>
</svg>
